<?xml version="1.0" standalone="no"?>
<!DOCTYPE svg PUBLIC "-//W3C//DTD SVG 20010904//EN"
 "http://www.w3.org/TR/2001/REC-SVG-20010904/DTD/svg10.dtd">
<svg version="1.0" xmlns="http://www.w3.org/2000/svg"
 width="192.000000pt" height="192.000000pt" viewBox="0 0 192.000000 192.000000"
 preserveAspectRatio="xMidYMid meet">
<metadata>
Created by potrace 1.10, written by Peter Selinger 2001-2011
</metadata>
<g transform="translate(0.000000,192.000000) scale(0.100000,-0.100000)"
fill="#000000" stroke="none">
<path d="M1000 1040 l0 -200 136 0 c74 0 156 5 181 11 91 23 143 116 130 231
-8 65 -34 108 -83 135 -36 21 -52 23 -201 23 l-163 0 0 -200z m180 153 c0 -5
-4 -13 -9 -18 -12 -13 -19 -265 -7 -287 7 -16 2 -18 -45 -18 -84 0 -84 0 -87
151 -5 182 -8 176 78 178 38 1 70 -2 70 -6z m172 -10 c58 -35 77 -148 38 -229
-16 -32 -31 -46 -61 -58 -22 -9 -48 -16 -58 -16 -18 0 -17 2 3 43 29 58 30
208 2 250 l-18 27 32 0 c17 0 45 -8 62 -17z m-101 -34 c17 -33 7 -190 -15
-223 -10 -16 -24 -26 -34 -24 -14 3 -16 14 -13 73 2 39 5 97 7 130 1 33 3 61
3 63 1 1 10 2 21 2 10 0 24 -10 31 -21z"/>
<path d="M0 1210 c0 -19 7 -20 165 -20 l165 0 0 -25 c0 -18 -5 -25 -19 -25
-11 0 -31 -10 -45 -22 -22 -21 -25 -32 -30 -133 -3 -60 -5 -111 -6 -112 0 -2
-25 -3 -55 -3 -45 0 -55 3 -56 18 -1 9 -2 61 -3 115 -1 91 -3 100 -25 118 -13
10 -38 19 -57 19 -28 0 -34 -4 -34 -21 0 -19 4 -21 40 -16 l40 5 0 -123 c0
-68 3 -130 6 -139 5 -13 23 -16 90 -16 59 0 86 4 89 13 2 6 6 68 8 137 l5 125
43 0 44 0 3 63 3 62 -186 0 c-178 0 -185 -1 -185 -20z"/>
<path d="M399 1168 c-1 -35 -2 -124 -3 -198 l-1 -135 165 0 165 0 0 70 0 70
-62 -3 -62 -4 -3 129 -3 128 -97 3 -98 3 -1 -63z m165 -10 c3 -17 6 -63 6
-102 0 -85 16 -116 60 -116 46 0 60 -10 60 -41 l0 -29 -129 0 -129 0 -1 159
c-2 181 -7 170 85 163 38 -3 43 -7 48 -34z"/>
<path d="M1488 1224 c-10 -9 -10 -112 -1 -272 7 -142 3 -138 123 -127 l79 7 3
56 3 57 38 -57 c53 -78 60 -83 99 -67 58 22 88 49 88 75 0 29 -22 75 -44 93
-14 12 -12 16 14 41 29 27 40 60 21 60 -15 0 -71 -70 -71 -89 0 -10 14 -37 31
-61 34 -47 33 -48 -29 -76 -32 -14 -33 -14 -60 18 -41 50 -70 78 -81 78 -16 0
-51 -52 -51 -76 0 -23 -4 -24 -59 -24 l-60 0 -7 58 c-4 31 -7 95 -6 142 0 145
-9 130 77 130 l75 0 -10 -26 c-6 -14 -10 -51 -10 -83 0 -90 48 -120 94 -58 24
33 29 125 7 151 -12 14 -9 16 22 16 40 0 82 -16 111 -42 34 -31 47 -18 26 23
-23 42 -66 52 -245 57 -93 2 -173 1 -177 -4z m240 -108 c4 -68 -4 -96 -28 -96
-16 0 -20 7 -20 38 0 70 11 113 29 110 12 -2 17 -17 19 -52z"/>
<path d="M782 1093 l3 -68 78 -3 77 -3 0 65 c0 75 -2 76 -96 76 l-65 0 3 -67z
m117 9 c13 -25 -4 -42 -41 -42 -30 0 -44 19 -34 45 8 22 63 19 75 -3z"/>
<path d="M770 892 c0 -67 11 -82 60 -82 l35 -1 -36 -32 c-32 -29 -35 -35 -27
-64 7 -27 14 -33 36 -33 78 0 130 83 118 191 -3 33 -8 65 -12 70 -3 5 -43 9
-90 9 l-84 0 0 -58z m146 -8 c8 -33 -2 -108 -18 -134 -7 -11 -21 -20 -30 -20
-22 0 -22 5 0 42 l17 29 -35 32 c-19 17 -36 41 -37 54 -2 21 2 23 47 23 45 0
50 -2 56 -26z"/>
</g>
</svg>
